<?xml version="1.0" encoding="utf-8"?>
<!-- Generator: Adobe Illustrator 21.1.0, SVG Export Plug-In . SVG Version: 6.00 Build 0)  -->
<svg version="1.1" id="Capa_1" xmlns="http://www.w3.org/2000/svg" xmlns:xlink="http://www.w3.org/1999/xlink" x="0px" y="0px"
	 viewBox="0 0 512 512" enable-background="new 0 0 512 512" xml:space="preserve">
<g>
	<g>
		<g>
			<path d="M256,0C114.6,0,0,114.6,0,256s114.6,256,256,256s256-114.6,256-256S397.4,0,256,0z M256,480C132.3,480,32,379.7,32,256
				S132.3,32,256,32s224,100.3,224,224S379.7,480,256,480z"/>
			<path d="M315.4,100.6l-22.7,22.7l36.8,36.6H160c-17.7,0-32,14.3-32,32v48h32v-48h169.4l-36.6,36.6l22.6,22.6l64-64
				c6.2-6.2,6.2-16.3,0-22.6L315.4,100.6z"/>
			<path d="M352,320H182.6l36.6-36.6l-22.6-22.6l-64,64c-6.2,6.2-6.2,16.3,0,22.6l64,64l22.6-22.6L182.6,352H352
				c17.7,0,32-14.3,32-32v-48h-32V320z"/>
		</g>
	</g>
</g>
</svg>
