<?xml version="1.0" encoding="utf-8"?>
<!-- Generator: Adobe Illustrator 21.1.0, SVG Export Plug-In . SVG Version: 6.00 Build 0)  -->
<svg version="1.1" id="Capa_1" xmlns="http://www.w3.org/2000/svg" xmlns:xlink="http://www.w3.org/1999/xlink" x="0px" y="0px"
	 viewBox="0 0 292.3 292.3" style="enable-background:new 0 0 292.3 292.3;" xml:space="preserve">
<style type="text/css">
	.st0{fill:#010002;}
</style>
<g>
	<g>
		<path class="st0" d="M201.5,139.8c-0.8-2-2-3.7-3.5-5.2l-59.3-59.3c-3.1-3.1-7.2-4.8-11.5-4.8c-4.4,0-8.5,1.7-11.5,4.8
			c-6.4,6.4-6.4,16.7,0,23.1l31.4,31.4c-49,0-98,0-147,0.1c0,10.9,0,21.7,0,32.6h147l-31.4,31.5c-6.4,6.4-6.4,16.7,0,23.1
			c3.1,3.1,7.2,4.8,11.5,4.8s8.5-1.7,11.5-4.8l59.4-59.3c1.5-1.5,2.6-3.3,3.5-5.3c0.8-2,1.2-4.1,1.2-6.2
			C202.8,144,202.4,142,201.5,139.8z"/>
		<path class="st0" d="M237.9,0H54.4C24.4,0,0,24.4,0,54.4l0,57.7l32.6-0.1V54.4c0-12,9.8-21.7,21.8-21.7h183.5
			c12,0,21.8,9.8,21.8,21.7v183.5c0,12-9.8,21.7-21.8,21.7H54.4c-12,0-21.8-9.7-21.8-21.7l0-57.7L0,180.3v57.6
			c0,30,24.4,54.4,54.4,54.4h183.5c30,0,54.4-24.4,54.4-54.4V54.4C292.3,24.4,267.9,0,237.9,0z"/>
	</g>
</g>
</svg>
