<?xml version="1.0" encoding="utf-8"?>
<!-- Generator: Adobe Illustrator 17.1.0, SVG Export Plug-In . SVG Version: 6.00 Build 0)  -->
<!DOCTYPE svg PUBLIC "-//W3C//DTD SVG 1.1//EN" "http://www.w3.org/Graphics/SVG/1.1/DTD/svg11.dtd">
<svg version="1.1" id="Слой_1" xmlns="http://www.w3.org/2000/svg" xmlns:xlink="http://www.w3.org/1999/xlink" x="0px" y="0px"
	 viewBox="0 0 286.1 155" enable-background="new 0 0 286.1 155" xml:space="preserve">
<g>
	<path fill="#FFFFFF" d="M113.3,93.9c-1.8-1.9-3.3-4-4.5-6.3c-0.5,0.1-1.1,0.1-1.6,0.1c-4,0-6.8-2.4-6.8-7.4V57.7h8.4
		c1.6-3,3.7-5.6,6.2-7.8v-3.3h-14.4V31.7l-13,1.4v13.5h-9.8v11.2h9.8v22.6c0,13.1,7.4,19.5,18.8,19.1c3.9-0.1,7-0.7,10.6-2.2
		C115.8,96.3,114.5,95.2,113.3,93.9"/>
	<path fill="#FFFFFF" d="M35.5,93.9c-1.8-1.9-3.3-4-4.5-6.3c-0.5,0.1-1.1,0.1-1.6,0.1c-4,0-6.8-2.4-6.8-7.4V57.7H31
		c1.6-3,3.7-5.6,6.2-7.8v-3.3H22.7V31.7L9.8,33v13.5H0v11.2h9.8v22.6c0,13.1,7.4,19.5,18.8,19.1c3.9-0.1,7-0.7,10.6-2.2
		C37.9,96.3,36.6,95.2,35.5,93.9"/>
	<path fill="#FFFFFF" d="M84.8,72.7c0,15.1-10.3,27.3-27.3,27.3c-17,0-27.2-12.2-27.2-27.3c0-15,10.4-27.3,27.1-27.3
		C74.1,45.4,84.8,57.7,84.8,72.7 M43.3,72.7c0,8,4.8,15.4,14.2,15.4c9.5,0,14.2-7.4,14.2-15.4c0-7.9-5.5-15.5-14.2-15.5
		C48.2,57.2,43.3,64.8,43.3,72.7"/>
	<rect x="167.9" y="24.5" fill="#FFFFFF" width="12.9" height="74.3"/>
	<path fill="#FFFFFF" d="M152.6,46.4l-0.3,5.9c-4.5-4.1-10.2-7-17-7c-16.7,0-27.1,12.3-27.1,27.3c0,15.1,10.2,27.3,27.2,27.3
		c6.7,0,12.5-3.1,16.9-7.3l0.5,6.2H165V46.4H152.6z M135.4,88.1c-9.5,0-14.2-7.4-14.2-15.4c0-7.9,4.9-15.5,14.2-15.5
		c8.7,0,14.2,7.6,14.2,15.5C149.6,80.6,144.8,88.1,135.4,88.1"/>
	<path fill="#FFFFFF" d="M48.2,38.5c4.9-4.9,12.7-4.9,17.6,0c1.4,1.4,2.4,3,3,4.8l4.2-4.2c-0.8-1.6-1.9-3.1-3.3-4.5
		c-7-7-18.4-7-25.3,0c-1.4,1.3-2.4,2.9-3.3,4.5l4.2,4.2C45.8,41.5,46.8,39.9,48.2,38.5"/>
	<path fill="#FFFFFF" d="M39.6,29.8c9.6-9.6,25.3-9.6,34.9,0c1.3,1.3,2.5,2.8,3.4,4.3l4-4c-1-1.5-2.2-2.9-3.5-4.2
		c-11.8-11.8-30.9-11.8-42.6,0c-1.3,1.3-2.5,2.7-3.5,4.2l4,4C37.1,32.6,38.2,31.2,39.6,29.8"/>
	<path fill="#FFFFFF" d="M31.1,21.3C45.4,7,68.7,7,83,21.3c1.3,1.3,2.5,2.7,3.6,4.2l3.9-3.9c-1.1-1.4-2.3-2.8-3.6-4.1
		C70.4,1,43.6,1,27.2,17.5c-1.3,1.3-2.5,2.7-3.6,4.1l3.9,3.9C28.6,24,29.8,22.7,31.1,21.3"/>
	<g>
		<path fill="#FFFFFF" d="M25.9,151.2h-5.3l-4.4-15.1h-0.1l-4.4,15.1H6.3L0,128.9h5.8l3.5,14.8h0.1l4-14.8H19l4,14.8h0.1l3.6-14.8
			h5.6L25.9,151.2z"/>
		<path fill="#FFFFFF" d="M53.4,151.2v-22.3h5.4v22.3H53.4z"/>
		<path fill="#FFFFFF" d="M94.2,151.2l-4.8-8.8h-1.8v8.8h-5.3v-22.3h8.5c1.1,0,2.1,0.1,3.1,0.3c1,0.2,1.9,0.6,2.7,1.1
			c0.8,0.5,1.5,1.2,1.9,2.1c0.5,0.9,0.7,1.9,0.7,3.2c0,1.5-0.4,2.8-1.2,3.8c-0.8,1-2,1.8-3.4,2.2l5.8,9.5H94.2z M94,135.8
			c0-0.5-0.1-0.9-0.3-1.3c-0.2-0.3-0.5-0.6-0.9-0.8c-0.3-0.2-0.7-0.3-1.2-0.4c-0.4-0.1-0.8-0.1-1.2-0.1h-2.9v5.2h2.6
			c0.4,0,0.9,0,1.4-0.1c0.5-0.1,0.9-0.2,1.3-0.4c0.4-0.2,0.7-0.5,0.9-0.8C93.9,136.8,94,136.3,94,135.8z"/>
		<path fill="#FFFFFF" d="M122,151.2v-22.3h15v4.5h-9.8v4.2h9.3v4.3h-9.3v4.6h10.4v4.6H122z"/>
		<path fill="#FFFFFF" d="M160,151.2v-22.3h5.4v17.6h8.6v4.7H160z"/>
		<path fill="#FFFFFF" d="M195.4,151.2v-22.3h15v4.5h-9.8v4.2h9.3v4.3h-9.3v4.6H211v4.6H195.4z"/>
		<path fill="#FFFFFF" d="M245.2,134.7c-0.5-0.6-1.1-1.1-1.8-1.4c-0.7-0.3-1.5-0.5-2.2-0.5c-0.4,0-0.7,0-1.1,0.1
			c-0.4,0.1-0.7,0.2-1,0.4c-0.3,0.2-0.5,0.4-0.7,0.7c-0.2,0.3-0.3,0.6-0.3,1.1c0,0.4,0.1,0.7,0.2,0.9c0.2,0.3,0.4,0.5,0.7,0.7
			c0.3,0.2,0.7,0.4,1.1,0.5c0.4,0.2,0.9,0.3,1.4,0.5c0.8,0.3,1.5,0.5,2.4,0.8c0.8,0.3,1.6,0.7,2.2,1.2c0.7,0.5,1.2,1.1,1.7,1.9
			s0.7,1.7,0.7,2.8c0,1.3-0.2,2.4-0.7,3.3c-0.5,0.9-1.1,1.7-1.9,2.3c-0.8,0.6-1.7,1.1-2.7,1.4c-1,0.3-2.1,0.4-3.2,0.4
			c-1.6,0-3.1-0.3-4.6-0.8c-1.5-0.6-2.7-1.3-3.7-2.4l3.5-3.6c0.5,0.7,1.3,1.2,2.2,1.7c0.9,0.5,1.8,0.7,2.7,0.7c0.4,0,0.8,0,1.2-0.1
			c0.4-0.1,0.7-0.2,1-0.4c0.3-0.2,0.5-0.4,0.7-0.8c0.2-0.3,0.3-0.7,0.3-1.1c0-0.4-0.1-0.8-0.3-1.1c-0.2-0.3-0.5-0.6-0.9-0.8
			c-0.4-0.2-0.9-0.5-1.4-0.7c-0.6-0.2-1.2-0.4-2-0.6c-0.7-0.2-1.4-0.5-2.1-0.8c-0.7-0.3-1.3-0.7-1.8-1.2c-0.5-0.5-1-1.1-1.3-1.8
			c-0.3-0.7-0.5-1.6-0.5-2.6c0-1.2,0.3-2.3,0.8-3.2c0.5-0.9,1.2-1.6,2-2.2s1.7-1,2.8-1.2c1-0.3,2.1-0.4,3.1-0.4
			c1.3,0,2.5,0.2,3.9,0.7c1.3,0.5,2.5,1.1,3.4,2L245.2,134.7z"/>
		<path fill="#FFFFFF" d="M282.7,134.7c-0.5-0.6-1.1-1.1-1.8-1.4c-0.7-0.3-1.5-0.5-2.2-0.5c-0.4,0-0.7,0-1.1,0.1
			c-0.4,0.1-0.7,0.2-1,0.4c-0.3,0.2-0.5,0.4-0.7,0.7c-0.2,0.3-0.3,0.6-0.3,1.1c0,0.4,0.1,0.7,0.2,0.9c0.2,0.3,0.4,0.5,0.7,0.7
			c0.3,0.2,0.7,0.4,1.1,0.5c0.4,0.2,0.9,0.3,1.4,0.5c0.8,0.3,1.5,0.5,2.4,0.8c0.8,0.3,1.6,0.7,2.2,1.2c0.7,0.5,1.2,1.1,1.7,1.9
			c0.4,0.7,0.7,1.7,0.7,2.8c0,1.3-0.2,2.4-0.7,3.3s-1.1,1.7-1.9,2.3c-0.8,0.6-1.7,1.1-2.7,1.4c-1,0.3-2.1,0.4-3.2,0.4
			c-1.6,0-3.1-0.3-4.6-0.8c-1.5-0.6-2.7-1.3-3.7-2.4l3.5-3.6c0.5,0.7,1.3,1.2,2.2,1.7c0.9,0.5,1.8,0.7,2.7,0.7c0.4,0,0.8,0,1.2-0.1
			c0.4-0.1,0.7-0.2,1-0.4c0.3-0.2,0.5-0.4,0.7-0.8s0.3-0.7,0.3-1.1c0-0.4-0.1-0.8-0.3-1.1c-0.2-0.3-0.5-0.6-0.9-0.8
			c-0.4-0.2-0.9-0.5-1.4-0.7c-0.6-0.2-1.2-0.4-2-0.6c-0.7-0.2-1.4-0.5-2.1-0.8c-0.7-0.3-1.3-0.7-1.8-1.2c-0.5-0.5-1-1.1-1.3-1.8
			c-0.3-0.7-0.5-1.6-0.5-2.6c0-1.2,0.3-2.3,0.8-3.2c0.5-0.9,1.2-1.6,2-2.2s1.7-1,2.8-1.2c1-0.3,2.1-0.4,3.1-0.4
			c1.3,0,2.5,0.2,3.9,0.7c1.3,0.5,2.5,1.1,3.4,2L282.7,134.7z"/>
	</g>
	<rect x="0" y="111.1" fill="#FFFFFF" width="285.4" height="5.5"/>
</g>
</svg>
