<?xml version="1.0" encoding="UTF-8"?><!DOCTYPE svg PUBLIC "-//W3C//DTD SVG 1.1//EN" "http://www.w3.org/Graphics/SVG/1.1/DTD/svg11.dtd"><svg xmlns="http://www.w3.org/2000/svg"><symbol id="icon-angle-left" viewBox="0 0 80.5 137.1">
    <path d="M26.8 68.5l51.6-51.6c2.7-2.7 2.7-7.2 0-9.9l-5-5c-2.7-2.7-7.2-2.7-9.9 0L2.1 63.6c-2.7 2.7-2.7 7.2 0 9.9L63.6 135c2.7 2.7 7.2 2.7 9.9 0l5-5c2.7-2.7 2.7-7.2 0-9.9L26.8 68.5z"/>
</symbol><symbol id="icon-close" viewBox="0 0 21.9 21.9">
    <path d="M14.1 11.3c-.2-.2-.2-.5 0-.7l7.5-7.5c.2-.2.3-.5.3-.7s-.1-.5-.3-.7L20.2.3c-.2-.2-.5-.3-.7-.3-.3 0-.5.1-.7.3l-7.5 7.5c-.2.2-.5.2-.7 0L3.1.3C2.9.1 2.6 0 2.4 0s-.5.1-.7.3L.3 1.7c-.2.2-.3.5-.3.7s.1.5.3.7l7.5 7.5c.2.2.2.5 0 .7L.3 18.8c-.2.2-.3.5-.3.7s.1.5.3.7l1.4 1.4c.2.2.5.3.7.3s.5-.1.7-.3l7.5-7.5c.2-.2.5-.2.7 0l7.5 7.5c.2.2.5.3.7.3s.5-.1.7-.3l1.4-1.4c.2-.2.3-.5.3-.7s-.1-.5-.3-.7l-7.5-7.5z"/>
</symbol><symbol id="icon-logout-mark" viewBox="0 0 292.3 292.3">
    <style>
        .st0{fill:#010002}
    </style>
    <path class="st0" d="M201.5 139.8c-.8-2-2-3.7-3.5-5.2l-59.3-59.3c-3.1-3.1-7.2-4.8-11.5-4.8-4.4 0-8.5 1.7-11.5 4.8-6.4 6.4-6.4 16.7 0 23.1l31.4 31.4c-49 0-98 0-147 .1v32.6h147L115.7 194c-6.4 6.4-6.4 16.7 0 23.1 3.1 3.1 7.2 4.8 11.5 4.8s8.5-1.7 11.5-4.8l59.4-59.3c1.5-1.5 2.6-3.3 3.5-5.3.8-2 1.2-4.1 1.2-6.2 0-2.3-.4-4.3-1.3-6.5z"/>
    <path class="st0" d="M237.9 0H54.4C24.4 0 0 24.4 0 54.4v57.7l32.6-.1V54.4c0-12 9.8-21.7 21.8-21.7h183.5c12 0 21.8 9.8 21.8 21.7v183.5c0 12-9.8 21.7-21.8 21.7H54.4c-12 0-21.8-9.7-21.8-21.7v-57.7l-32.6.1v57.6c0 30 24.4 54.4 54.4 54.4h183.5c30 0 54.4-24.4 54.4-54.4V54.4c0-30-24.4-54.4-54.4-54.4z"/>
</symbol></svg>