<svg xmlns="http://www.w3.org/2000/svg" viewBox="0 0 286.1 155">
    <g fill="#FFF">
        <path d="M113.3 93.9c-1.8-1.9-3.3-4-4.5-6.3-.5.1-1.1.1-1.6.1-4 0-6.8-2.4-6.8-7.4V57.7h8.4c1.6-3 3.7-5.6 6.2-7.8v-3.3h-14.4V31.7l-13 1.4v13.5h-9.8v11.2h9.8v22.6c0 13.1 7.4 19.5 18.8 19.1 3.9-.1 7-.7 10.6-2.2-1.2-1-2.5-2.1-3.7-3.4"/>
        <path d="M35.5 93.9c-1.8-1.9-3.3-4-4.5-6.3-.5.1-1.1.1-1.6.1-4 0-6.8-2.4-6.8-7.4V57.7H31c1.6-3 3.7-5.6 6.2-7.8v-3.3H22.7V31.7L9.8 33v13.5H0v11.2h9.8v22.6c0 13.1 7.4 19.5 18.8 19.1 3.9-.1 7-.7 10.6-2.2-1.3-.9-2.6-2-3.7-3.3"/>
        <path d="M84.8 72.7c0 15.1-10.3 27.3-27.3 27.3S30.3 87.8 30.3 72.7c0-15 10.4-27.3 27.1-27.3 16.7 0 27.4 12.3 27.4 27.3m-41.5 0c0 8 4.8 15.4 14.2 15.4 9.5 0 14.2-7.4 14.2-15.4 0-7.9-5.5-15.5-14.2-15.5-9.3 0-14.2 7.6-14.2 15.5"/>
        <path d="M167.9 24.5h12.9v74.3h-12.9z"/>
        <path d="M152.6 46.4l-.3 5.9c-4.5-4.1-10.2-7-17-7-16.7 0-27.1 12.3-27.1 27.3 0 15.1 10.2 27.3 27.2 27.3 6.7 0 12.5-3.1 16.9-7.3l.5 6.2H165V46.4h-12.4zm-17.2 41.7c-9.5 0-14.2-7.4-14.2-15.4 0-7.9 4.9-15.5 14.2-15.5 8.7 0 14.2 7.6 14.2 15.5s-4.8 15.4-14.2 15.4"/>
        <path d="M48.2 38.5c4.9-4.9 12.7-4.9 17.6 0 1.4 1.4 2.4 3 3 4.8l4.2-4.2c-.8-1.6-1.9-3.1-3.3-4.5-7-7-18.4-7-25.3 0-1.4 1.3-2.4 2.9-3.3 4.5l4.2 4.2c.5-1.8 1.5-3.4 2.9-4.8"/>
        <path d="M39.6 29.8c9.6-9.6 25.3-9.6 34.9 0 1.3 1.3 2.5 2.8 3.4 4.3l4-4c-1-1.5-2.2-2.9-3.5-4.2-11.8-11.8-30.9-11.8-42.6 0-1.3 1.3-2.5 2.7-3.5 4.2l4 4c.8-1.5 1.9-2.9 3.3-4.3"/>
        <path d="M31.1 21.3C45.4 7 68.7 7 83 21.3c1.3 1.3 2.5 2.7 3.6 4.2l3.9-3.9c-1.1-1.4-2.3-2.8-3.6-4.1C70.4 1 43.6 1 27.2 17.5c-1.3 1.3-2.5 2.7-3.6 4.1l3.9 3.9c1.1-1.5 2.3-2.8 3.6-4.2"/>
        <path d="M25.9 151.2h-5.3l-4.4-15.1h-.1l-4.4 15.1H6.3L0 128.9h5.8l3.5 14.8h.1l4-14.8H19l4 14.8h.1l3.6-14.8h5.6l-6.4 22.3z"/>
        <path d="M53.4 151.2v-22.3h5.4v22.3h-5.4z"/>
        <path d="M94.2 151.2l-4.8-8.8h-1.8v8.8h-5.3v-22.3h8.5c1.1 0 2.1.1 3.1.3 1 .2 1.9.6 2.7 1.1.8.5 1.5 1.2 1.9 2.1.5.9.7 1.9.7 3.2 0 1.5-.4 2.8-1.2 3.8-.8 1-2 1.8-3.4 2.2l5.8 9.5h-6.2zm-.2-15.4c0-.5-.1-.9-.3-1.3-.2-.3-.5-.6-.9-.8-.3-.2-.7-.3-1.2-.4-.4-.1-.8-.1-1.2-.1h-2.9v5.2h2.6c.4 0 .9 0 1.4-.1.5-.1.9-.2 1.3-.4s.7-.5.9-.8c.2-.3.3-.8.3-1.3z"/>
        <path d="M122 151.2v-22.3h15v4.5h-9.8v4.2h9.3v4.3h-9.3v4.6h10.4v4.6H122z"/>
        <path d="M160 151.2v-22.3h5.4v17.6h8.6v4.7h-14z"/>
        <path d="M195.4 151.2v-22.3h15v4.5h-9.8v4.2h9.3v4.3h-9.3v4.6H211v4.6h-15.6z"/>
        <path d="M245.2 134.7c-.5-.6-1.1-1.1-1.8-1.4-.7-.3-1.5-.5-2.2-.5-.4 0-.7 0-1.1.1-.4.1-.7.2-1 .4-.3.2-.5.4-.7.7-.2.3-.3.6-.3 1.1 0 .4.1.7.2.9.2.3.4.5.7.7.3.2.7.4 1.1.5.4.2.9.3 1.4.5.8.3 1.5.5 2.4.8.8.3 1.6.7 2.2 1.2.7.5 1.2 1.1 1.7 1.9s.7 1.7.7 2.8c0 1.3-.2 2.4-.7 3.3-.5.9-1.1 1.7-1.9 2.3-.8.6-1.7 1.1-2.7 1.4-1 .3-2.1.4-3.2.4-1.6 0-3.1-.3-4.6-.8-1.5-.6-2.7-1.3-3.7-2.4l3.5-3.6c.5.7 1.3 1.2 2.2 1.7.9.5 1.8.7 2.7.7.4 0 .8 0 1.2-.1.4-.1.7-.2 1-.4.3-.2.5-.4.7-.8.2-.3.3-.7.3-1.1 0-.4-.1-.8-.3-1.1-.2-.3-.5-.6-.9-.8-.4-.2-.9-.5-1.4-.7-.6-.2-1.2-.4-2-.6-.7-.2-1.4-.5-2.1-.8-.7-.3-1.3-.7-1.8-1.2s-1-1.1-1.3-1.8c-.3-.7-.5-1.6-.5-2.6 0-1.2.3-2.3.8-3.2.5-.9 1.2-1.6 2-2.2s1.7-1 2.8-1.2c1-.3 2.1-.4 3.1-.4 1.3 0 2.5.2 3.9.7 1.3.5 2.5 1.1 3.4 2l-3.8 3.6z"/>
        <path d="M282.7 134.7c-.5-.6-1.1-1.1-1.8-1.4-.7-.3-1.5-.5-2.2-.5-.4 0-.7 0-1.1.1-.4.1-.7.2-1 .4-.3.2-.5.4-.7.7-.2.3-.3.6-.3 1.1 0 .4.1.7.2.9.2.3.4.5.7.7.3.2.7.4 1.1.5.4.2.9.3 1.4.5.8.3 1.5.5 2.4.8.8.3 1.6.7 2.2 1.2.7.5 1.2 1.1 1.7 1.9.4.7.7 1.7.7 2.8 0 1.3-.2 2.4-.7 3.3s-1.1 1.7-1.9 2.3c-.8.6-1.7 1.1-2.7 1.4-1 .3-2.1.4-3.2.4-1.6 0-3.1-.3-4.6-.8-1.5-.6-2.7-1.3-3.7-2.4l3.5-3.6c.5.7 1.3 1.2 2.2 1.7.9.5 1.8.7 2.7.7.4 0 .8 0 1.2-.1.4-.1.7-.2 1-.4.3-.2.5-.4.7-.8s.3-.7.3-1.1c0-.4-.1-.8-.3-1.1-.2-.3-.5-.6-.9-.8-.4-.2-.9-.5-1.4-.7-.6-.2-1.2-.4-2-.6-.7-.2-1.4-.5-2.1-.8-.7-.3-1.3-.7-1.8-1.2s-1-1.1-1.3-1.8c-.3-.7-.5-1.6-.5-2.6 0-1.2.3-2.3.8-3.2.5-.9 1.2-1.6 2-2.2s1.7-1 2.8-1.2c1-.3 2.1-.4 3.1-.4 1.3 0 2.5.2 3.9.7 1.3.5 2.5 1.1 3.4 2l-3.8 3.6z"/>
        <path d="M0 111.1h285.4v5.5H0z"/>
    </g>
</svg>
